<?xml version="1.0" encoding="utf-8"?><svg viewBox="0 0 830 43" xmlns="http://www.w3.org/2000/svg" xmlns:xlink="http://www.w3.org/1999/xlink"><style>:root>svg{display:none}:root>svg:target{display:block}</style><svg viewBox="0 0 18 21" id="attach" xmlns="http://www.w3.org/2000/svg"><path d="M16.813 4.609L13.33 1.127c-.413-.413-1.239-.76-1.83-.76h-10A1.073 1.073 0 00.429 1.44v17.858c0 .591.48 1.07 1.071 1.07h15a1.07 1.07 0 001.071-1.07V6.439c0-.591-.346-1.417-.759-1.83zm-4.956-2.723c.19.067.38.167.458.245l3.493 3.494c.078.078.179.267.246.457h-4.197V1.886zm4.286 17.053H1.857V1.796h8.572V6.44c0 .592.48 1.072 1.071 1.072h4.643V18.94zM4.714 9.296v.715c0 .2.157.357.357.357h7.858c.2 0 .357-.156.357-.357v-.715c0-.2-.156-.357-.357-.357H5.07c-.2 0-.357.157-.357.357zm8.215 2.5H5.07c-.2 0-.357.157-.357.358v.714c0 .2.157.357.357.357h7.858c.2 0 .357-.156.357-.357v-.714a.352.352 0 00-.357-.357zm0 2.858H5.07c-.2 0-.357.156-.357.357v.714c0 .201.157.357.357.357h7.858c.2 0 .357-.156.357-.357v-.714a.352.352 0 00-.357-.357z"/></svg><svg viewBox="0 0 39 27" id="dollar" xmlns="http://www.w3.org/2000/svg"><path d="M15.729 18.536v-1.929H18.3v-5.786h-.04c-.321.503-.623.724-1.105 1.146l-1.547-1.608 2.973-2.752h2.29v9h2.572v1.929h-7.714zm10.286-5.143c0-3.656-2.21-8.357-6.43-8.357-4.218 0-6.428 4.7-6.428 8.357 0 3.656 2.21 8.357 6.429 8.357s6.429-4.7 6.429-8.357zM36.3 18.536a5.153 5.153 0 00-5.143 5.143H8.014a5.153 5.153 0 00-5.142-5.143V8.25a5.153 5.153 0 005.142-5.143h23.143A5.153 5.153 0 0036.3 8.25v10.286zM38.872 1.82c0-.703-.583-1.285-1.286-1.285h-36A1.296 1.296 0 00.3 1.82v23.143c0 .703.583 1.286 1.286 1.286h36c.703 0 1.286-.583 1.286-1.286V1.821z"/></svg><svg viewBox="0 0 111 6" id="dots" xmlns="http://www.w3.org/2000/svg"><circle cx="81.011" cy="3" r="3"/><circle cx="107.011" cy="3" r="3"/><circle cx="55.011" cy="3" r="3"/><circle cx="29.011" cy="3" r="3"/><circle cx="3.011" cy="3" r="3"/></svg><svg viewBox="0 0 830 6" id="dots2" xmlns="http://www.w3.org/2000/svg"><circle cx="81.011" cy="3" r="3"/><circle cx="107.011" cy="3" r="3"/><circle cx="55.011" cy="3" r="3"/><circle cx="29.011" cy="3" r="3"/><circle cx="3.011" cy="3" r="3"/><circle cx="321" cy="3" r="3"/><circle cx="347" cy="3" r="3"/><circle cx="295" cy="3" r="3"/><circle cx="269" cy="3" r="3"/><circle cx="243" cy="3" r="3"/><circle cx="561" cy="3" r="3"/><circle cx="587" cy="3" r="3"/><circle cx="535" cy="3" r="3"/><circle cx="509" cy="3" r="3"/><circle cx="483" cy="3" r="3"/><circle cx="800.972" cy="3" r="3"/><circle cx="826.972" cy="3" r="3"/><circle cx="774.972" cy="3" r="3"/><circle cx="748.972" cy="3" r="3"/><circle cx="722.972" cy="3" r="3"/></svg><svg viewBox="0 0 40 43" id="list" xmlns="http://www.w3.org/2000/svg"><path d="M15.993 23.372v-1.285c0-.362.281-.643.643-.643H30.78c.361 0 .643.281.643.643v1.285a.635.635 0 01-.643.643H16.636a.635.635 0 01-.643-.643zm.643 3.215H30.78c.361 0 .643.281.643.643v1.285a.635.635 0 01-.643.643H16.636a.635.635 0 01-.643-.643V27.23c0-.362.281-.643.643-.643zm0 5.143H30.78c.361 0 .643.28.643.642v1.286a.635.635 0 01-.643.643H16.636a.635.635 0 01-.643-.643v-1.286c0-.361.281-.642.643-.642z"/><path fill-rule="evenodd" clip-rule="evenodd" d="M8.279 15.315a7.415 7.415 0 117.173-9.3h12.755c1.065 0 2.552.623 3.295 1.366l6.268 6.268c.743.744 1.366 2.23 1.366 3.295v23.143a1.93 1.93 0 01-1.928 1.928h-27a1.93 1.93 0 01-1.93-1.928V15.315zm2.571-.458a7.421 7.421 0 004.813-6.27h10.616v8.357a1.93 1.93 0 001.928 1.928h8.358v20.572H10.85V14.857zm18.824-5.668c-.14-.14-.482-.321-.824-.442v7.554h7.554c-.12-.341-.301-.683-.442-.824L29.674 9.19zM9.279 8.9h4v-2h-4v-4h-2v4h-4v2h4v4h2v-4z"/></svg><svg viewBox="0 0 246 22" id="logo" xmlns="http://www.w3.org/2000/svg"><path d="M.904 21V1.12h4.592v15.848h9.632V21H.904zm24.731.168c-1.493 0-2.846-.28-4.06-.84a10.275 10.275 0 01-3.108-2.296 10.798 10.798 0 01-1.988-3.248 10.368 10.368 0 01-.7-3.752c0-1.325.243-2.585.728-3.78A10.685 10.685 0 0118.58 4.06a9.758 9.758 0 013.164-2.24c1.214-.541 2.54-.812 3.976-.812 1.475 0 2.81.29 4.004.868a9.298 9.298 0 013.108 2.296c.878.97 1.55 2.063 2.016 3.276a10 10 0 01.7 3.668 9.946 9.946 0 01-.728 3.78 10.341 10.341 0 01-2.072 3.22c-.896.933-1.95 1.68-3.164 2.24-1.194.541-2.51.812-3.948.812zm-5.18-10.08c0 .765.112 1.512.336 2.24.224.71.551 1.344.98 1.904a5.04 5.04 0 001.652 1.344c.654.336 1.4.504 2.24.504.878 0 1.643-.168 2.296-.504a4.909 4.909 0 001.624-1.4c.43-.579.747-1.223.952-1.932a7.482 7.482 0 00.336-2.212c0-.765-.112-1.503-.336-2.212a5.826 5.826 0 00-1.008-1.904 4.611 4.611 0 00-1.652-1.344c-.653-.317-1.39-.476-2.212-.476-.877 0-1.642.168-2.296.504a4.984 4.984 0 00-1.624 1.372 6.084 6.084 0 00-.98 1.932 7.816 7.816 0 00-.308 2.184zM38.201 21V1.12h8.96a5.68 5.68 0 012.576.588 6.268 6.268 0 012.072 1.54 6.987 6.987 0 011.344 2.156c.336.803.504 1.615.504 2.436s-.13 1.605-.392 2.352a6.744 6.744 0 01-1.12 1.988 6.129 6.129 0 01-1.736 1.428L54.777 21h-5.068L45.9 14.588h-3.108V21H38.2zm4.592-10.416h4.2c.373 0 .7-.112.98-.336.299-.243.541-.57.728-.98.187-.41.28-.887.28-1.428 0-.541-.112-1.008-.336-1.4-.206-.41-.467-.728-.784-.952a1.719 1.719 0 00-1.008-.336h-4.06v5.432zm28.138 6.384V21H56.959V1.12h13.72v4.032H61.55v3.864h7.84v3.724h-7.84v4.228h9.38zM89.4 21V9.156l-4.285 8.624h-2.52l-4.284-8.624V21H73.72V1.12h4.984l5.152 10.388 5.18-10.388h4.956V21H89.4zm8.41 0V1.12h4.591V21H97.81zm8.394 0V1.12h8.484c.952 0 1.82.196 2.604.588a6.277 6.277 0 012.072 1.54 7.01 7.01 0 011.344 2.156c.317.803.476 1.624.476 2.464a6.872 6.872 0 01-.812 3.248 6.696 6.696 0 01-2.212 2.52c-.934.635-2.044.952-3.332.952h-4.032V21h-4.592zm4.592-10.416h3.752c.354 0 .681-.103.98-.308.298-.205.541-.513.728-.924.186-.41.28-.915.28-1.512 0-.616-.112-1.12-.336-1.512-.206-.41-.476-.71-.812-.896a1.96 1.96 0 00-1.008-.28h-3.584v5.432zm24.781-3.64c-.056-.093-.252-.233-.588-.42a12.215 12.215 0 00-2.912-1.232 6.592 6.592 0 00-1.792-.252c-.784 0-1.391.14-1.82.42-.429.261-.644.672-.644 1.232 0 .448.159.803.476 1.064.336.261.812.495 1.428.7.616.187 1.372.41 2.268.672 1.269.336 2.371.747 3.304 1.232.933.467 1.643 1.073 2.128 1.82.504.747.756 1.736.756 2.968 0 1.12-.205 2.072-.616 2.856a5.248 5.248 0 01-1.68 1.876 7.431 7.431 0 01-2.38 1.036 12.39 12.39 0 01-2.772.308c-.971 0-1.969-.093-2.996-.28a18.661 18.661 0 01-2.912-.84 14.008 14.008 0 01-2.576-1.344l2.016-4.004c.075.093.317.27.728.532.411.243.915.504 1.512.784.616.261 1.297.495 2.044.7a8.521 8.521 0 002.268.308c.821 0 1.428-.13 1.82-.392.411-.261.616-.625.616-1.092 0-.504-.215-.896-.644-1.176-.411-.28-.98-.532-1.708-.756-.709-.224-1.531-.476-2.464-.756-1.213-.373-2.221-.793-3.024-1.26-.784-.467-1.372-1.036-1.764-1.708-.373-.672-.56-1.512-.56-2.52 0-1.4.327-2.576.98-3.528a6.191 6.191 0 012.688-2.184c1.12-.504 2.343-.756 3.668-.756.933 0 1.829.112 2.688.336.877.224 1.689.504 2.436.84.765.336 1.447.672 2.044 1.008l-2.016 3.808zm13.839 14.224c-1.587 0-2.94-.261-4.06-.784-1.12-.541-2.035-1.27-2.744-2.184a9.78 9.78 0 01-1.54-3.164 14.526 14.526 0 01-.476-3.752V1.12h4.592v10.164c0 .747.074 1.475.224 2.184.149.69.392 1.307.728 1.848.336.541.765.97 1.288 1.288.541.317 1.204.476 1.988.476.802 0 1.474-.159 2.016-.476a3.79 3.79 0 001.288-1.316c.317-.56.55-1.185.7-1.876.149-.69.224-1.4.224-2.128V1.12h4.592v10.164c0 1.381-.178 2.67-.532 3.864-.336 1.195-.859 2.25-1.568 3.164-.71.896-1.624 1.596-2.744 2.1-1.102.504-2.427.756-3.976.756zM177.475 21V9.156l-4.284 8.624h-2.52l-4.284-8.624V21h-4.592V1.12h4.984l5.152 10.388 5.18-10.388h4.956V21h-4.592zm8.017 0v-4.564h3.668V21h-3.668zM197.176 9.632V21h-4.592V1.12h3.64l9.212 11.704V1.12h4.592V21h-3.752l-9.1-11.368zm30.626 7.336V21H213.83V1.12h13.72v4.032h-9.128v3.864h7.84v3.724h-7.84v4.228h9.38zM245.74 5.152h-6.048V21H235.1V5.152h-6.076V1.12h16.716v4.032z"/></svg><svg viewBox="0 0 37 29" id="mail" xmlns="http://www.w3.org/2000/svg"><path d="M33.795 25.107a.661.661 0 01-.643.643H3.581a.661.661 0 01-.643-.643V9.68c.422.482.884.924 1.386 1.325 2.873 2.21 5.766 4.46 8.558 6.79 1.507 1.266 3.375 2.813 5.464 2.813h.04c2.09 0 3.958-1.547 5.465-2.812 2.792-2.33 5.685-4.58 8.558-6.79.502-.402.964-.844 1.386-1.326v15.428zm0-21.114c0 1.708-1.647 3.938-2.953 4.962a1287.32 1287.32 0 00-8.056 6.369c-1.065.864-2.993 2.712-4.4 2.712h-.04c-1.406 0-3.334-1.849-4.4-2.712-2.67-2.13-5.363-4.26-8.055-6.369C4.083 7.53 2.938 5.54 2.938 3.25a.66.66 0 01.643-.643h29.571c.764 0 .643.884.643 1.386zm2.572-.743A3.224 3.224 0 0033.152.036H3.581A3.224 3.224 0 00.367 3.25v21.857a3.224 3.224 0 003.214 3.214h29.571a3.224 3.224 0 003.215-3.214V3.25z"/></svg><svg viewBox="0 0 31 32" id="percent" xmlns="http://www.w3.org/2000/svg"><path d="M25.786 23.964a2.59 2.59 0 01-2.572 2.572 2.59 2.59 0 01-2.571-2.572 2.59 2.59 0 012.571-2.571 2.59 2.59 0 012.572 2.571zM10.357 8.536a2.59 2.59 0 01-2.571 2.571 2.59 2.59 0 01-2.572-2.571 2.59 2.59 0 012.572-2.572 2.59 2.59 0 012.571 2.572zM30.93 23.964a7.716 7.716 0 00-7.715-7.714 7.716 7.716 0 00-7.714 7.714 7.716 7.716 0 007.714 7.715 7.716 7.716 0 007.715-7.715zM29 2.107c0-.703-.583-1.286-1.286-1.286H24.5c-.402 0-.784.201-1.025.523L2.261 29.629c-.16.221-.261.483-.261.764 0 .703.583 1.286 1.286 1.286H6.5c.402 0 .783-.201 1.025-.523L28.739 2.871c.16-.221.261-.483.261-.764zM15.5 8.536A7.716 7.716 0 007.786.82 7.716 7.716 0 00.07 8.536a7.716 7.716 0 007.715 7.714A7.716 7.716 0 0015.5 8.536z"/></svg><svg viewBox="0 0 35 35" id="search" xmlns="http://www.w3.org/2000/svg"><path d="M23.929 14.929c0 4.962-4.038 9-9 9s-9-4.038-9-9 4.038-9 9-9 9 4.038 9 9zm10.285 16.714c0-.683-.281-1.346-.743-1.808l-6.89-6.89a14.11 14.11 0 002.49-8.016C29.071 7.114 22.743.786 14.93.786 7.114.786.786 7.114.786 14.929c0 7.814 6.328 14.142 14.143 14.142a14.11 14.11 0 008.015-2.49l6.89 6.87a2.522 2.522 0 001.809.763 2.59 2.59 0 002.571-2.571z"/></svg></svg>